<?xml version="1.0" encoding="iso-8859-1"?>
<!-- Uploaded to: SVG Repo, www.svgrepo.com, Generator: SVG Repo Mixer Tools -->
<!DOCTYPE svg PUBLIC "-//W3C//DTD SVG 1.1//EN" "http://www.w3.org/Graphics/SVG/1.1/DTD/svg11.dtd">
<svg fill="#000000" height="800px" width="800px" version="1.1" id="Capa_1" xmlns="http://www.w3.org/2000/svg" xmlns:xlink="http://www.w3.org/1999/xlink" 
	 viewBox="0 0 238 238" xml:space="preserve">
<path d="M209.304,41.491c0.621-1.678,0.977-3.485,0.977-5.379c0-8.574-6.951-15.525-15.526-15.525c-2.382,0-4.63,0.552-6.647,1.511
	C168.075,7.746,144.134,0,119,0C87.214,0,57.33,12.378,34.854,34.854S0,87.214,0,119s12.378,61.67,34.854,84.146S87.214,238,119,238
	s61.67-12.378,84.146-34.854S238,150.786,238,119C238,90.249,227.871,63.055,209.304,41.491z M119,223c-57.438,0-104-46.562-104-104
	S61.562,15,119,15c22.499,0,43.329,7.146,60.346,19.29c-0.07,0.598-0.116,1.204-0.116,1.821c0,8.575,6.951,15.526,15.526,15.526
	c1.095,0,2.162-0.116,3.193-0.332C213.562,69.498,223,93.146,223,119C223,176.438,176.438,223,119,223z M208,119
	c0,49.153-39.847,89-89,89c-49.153,0-89-39.847-89-89c0-49.153,39.847-89,89-89C168.153,30,208,69.847,208,119z"/>
</svg>